<?xml version="1.0" standalone="no"?>

<!DOCTYPE svg PUBLIC "-//W3C//DTD SVG 20010904//EN"

 "http://www.w3.org/TR/2001/REC-SVG-20010904/DTD/svg10.dtd">

<svg version="1.0" xmlns="http://www.w3.org/2000/svg"

 width="200.000000pt" height="100.000000pt" viewBox="0 0 200.000000 100.000000"

 preserveAspectRatio="xMidYMid meet">

<metadata>

Created for Tetris 3 Batch - DQLab

</metadata>

<g transform="translate(0.000000,100.000000) scale(0.100000,-0.100000)"

fill="#000000" stroke="none">

<path d="M250 680 l0 -180 110 0 c103 0 110 1 110 20 0 19 -7 20 -90 20 l-90

0 0 160 c0 153 -1 160 -20 160 -19 0 -20 -7 -20 -180z"/>

<path d="M569 773 l60 -86 -36 -51 c-20 -28 -49 -67 -65 -87 -34 -45 -34 -49

-4 -49 19 0 35 16 72 68 26 37 50 71 54 75 4 4 28 -24 54 -63 47 -72 62 -84

91 -78 13 2 3 22 -44 90 -34 48 -61 91 -61 96 0 5 25 44 55 86 30 42 55 79 55

81 0 3 -10 5 -22 5 -17 0 -35 -18 -68 -65 -25 -35 -48 -64 -51 -65 -3 0 -26

29 -50 65 -36 53 -49 65 -72 65 l-28 0 60 -87z"/>

<path d="M860 681 c0 -174 1 -181 20 -181 19 0 20 7 21 158 l1 157 51 -157

c44 -138 54 -158 72 -158 18 0 28 20 72 158 l51 157 1 -157 c1 -151 2 -158 21

-158 19 0 20 7 20 180 l0 180 -33 0 -33 0 -48 -152 c-27 -84 -50 -148 -52

-143 -2 6 -24 73 -47 150 l-44 140 -36 3 -37 3 0 -180z"/>

<path d="M1313 841 c-36 -23 -52 -59 -32 -72 21 -13 25 -11 37 16 14 29 54 42

88 26 18 -8 24 -18 24 -44 0 -33 -11 -44 -62 -61 -33 -10 -21 -36 16 -36 42 0

66 -22 66 -61 0 -38 -32 -69 -70 -69 -32 0 -70 30 -70 56 0 11 -5 14 -16 10

-9 -3 -20 -6 -24 -6 -20 0 15 -63 44 -81 106 -65 240 64 159 154 -9 9 -23 17

-32 17 -14 1 -14 2 0 10 9 5 22 23 29 40 35 84 -72 152 -157 101z"/>

<path d="M1605 848 c-48 -28 -61 -92 -26 -127 19 -19 19 -20 -4 -41 -89 -84

24 -221 139 -168 60 27 79 120 33 166 -24 24 -24 25 -6 43 27 27 25 80 -5 108

-29 27 -101 38 -131 19z m97 -45 c22 -20 23 -41 1 -65 -20 -22 -66 -24 -87 -2

-49 49 34 114 86 67z m8 -143 c43 -43 11 -120 -50 -120 -41 0 -70 31 -70 74 0

60 77 89 120 46z"/>

</g>

</svg>

